<svg xmlns="http://www.w3.org/2000/svg" fill="none" width="1160" height="293" viewBox="0 0 1160 293"><rect fill="#fff" width="1160" height="293" rx="10"/><path d="M336.07 202.559V88.591h45.991c10.543 0 19.472 3.365 26.787 10.095 7.423 6.621 11.135 15.63 11.135 27.026 0 11.397-3.712 20.46-11.135 27.19-7.315 6.621-16.244 9.931-26.787 9.931h-25.013v39.726H336.07Zm20.978-58.123h23.722c5.594 0 10.112-1.683 13.555-5.047 3.442-3.474 5.164-8.033 5.164-13.677s-1.722-10.203-5.164-13.676c-3.443-3.473-7.961-5.21-13.555-5.21h-23.722v37.61Zm74.794 58.123v-80.591h20.171v10.582c6.24-8.249 16.46-12.21 30.66-11.885v21.491c-3.335-1.628-6.992-2.442-10.973-2.442-5.379 0-10.005 2.171-13.877 6.513-3.873 4.341-5.81 10.257-5.81 17.746v38.586h-20.171Zm130.225-10.257c-8.283 8.249-18.342 12.374-30.176 12.374s-21.946-4.125-30.337-12.374c-8.391-8.357-12.587-18.397-12.587-30.12 0-11.831 4.196-21.925 12.587-30.283 8.391-8.466 18.503-12.699 30.337-12.699 11.726 0 21.785 4.233 30.176 12.699 8.392 8.358 12.587 18.452 12.587 30.283s-4.195 21.871-12.587 30.12Zm-30.176-6.675c6.132.109 11.296-2.062 15.492-6.512 4.303-4.559 6.455-10.149 6.455-16.77 0-6.73-2.152-12.319-6.455-16.77-4.196-4.558-9.36-6.783-15.492-6.675-6.239-.108-11.511 2.117-15.814 6.675-4.196 4.451-6.293 10.04-6.293 16.77 0 6.621 2.097 12.211 6.293 16.77 4.303 4.45 9.575 6.621 15.814 6.512Zm89.839 18.235c-10.65 0-19.579-3.962-26.787-11.885-7.208-8.032-10.812-17.91-10.812-29.632 0-11.831 3.55-21.708 10.65-29.632 7.208-8.032 16.191-12.048 26.949-12.048 11.834 0 21.032 4.016 27.594 12.048V80.451h20.172v122.108h-20.172v-10.745c-6.562 8.032-15.76 12.048-27.594 12.048Zm-10.973-24.585c4.303 4.559 9.628 6.838 15.976 6.838 6.347 0 11.672-2.279 15.975-6.838 4.411-4.558 6.616-10.202 6.616-16.932 0-6.838-2.205-12.537-6.616-17.095-4.303-4.559-9.628-6.838-15.975-6.838-6.348 0-11.673 2.279-15.976 6.838-4.303 4.558-6.455 10.257-6.455 17.095 0 6.73 2.152 12.374 6.455 16.932Zm107.049 23.282v-95.082h-37.277V88.591h95.692v18.886h-37.276v95.082h-21.139Zm62.147 0v-80.591h20.171v10.582c6.24-8.249 16.46-12.21 30.661-11.885v21.491c-3.335-1.628-6.993-2.442-10.974-2.442-5.379 0-10.005 2.171-13.877 6.513-3.873 4.341-5.81 10.257-5.81 17.746v38.586h-20.171Zm93.76 1.303c-10.651 0-19.58-3.962-26.788-11.885-7.208-8.032-10.811-17.91-10.811-29.632 0-11.831 3.55-21.708 10.65-29.632 7.208-8.032 16.191-12.048 26.949-12.048 11.726 0 20.924 4.016 27.594 12.048v-10.745h20.171v80.591h-20.171v-10.582c-6.778 7.923-15.976 11.885-27.594 11.885Zm-11.135-24.585c4.411 4.559 9.79 6.838 16.137 6.838 6.347 0 11.673-2.279 15.976-6.838 4.411-4.558 6.616-10.202 6.616-16.932 0-6.838-2.205-12.537-6.616-17.095-4.303-4.559-9.629-6.838-15.976-6.838-6.347 0-11.726 2.279-16.137 6.838-4.303 4.558-6.455 10.257-6.455 17.095 0 6.73 2.152 12.374 6.455 16.932Zm113.826 25.399c-11.726 0-21.785-4.125-30.176-12.374-8.283-8.357-12.425-18.397-12.425-30.12 0-11.831 4.142-21.925 12.425-30.283 8.391-8.466 18.45-12.699 30.176-12.699 6.993 0 13.502 1.628 19.526 4.884 6.13 3.148 11.19 7.435 15.17 12.862l-16.461 12.048c-4.195-6.729-10.274-10.094-18.235-10.094-6.562-.108-12.049 2.117-16.459 6.675-4.304 4.451-6.455 10.04-6.455 16.77s2.151 12.319 6.455 16.77c4.41 4.341 9.897 6.512 16.459 6.512 3.873.109 7.423-.76 10.651-2.605 3.335-1.845 5.917-4.396 7.746-7.652l16.139 12.048c-3.98 5.319-8.99 9.552-15.01 12.699-6.024 3.039-12.533 4.559-19.526 4.559Zm82.266-85.151c11.83 0 21.46 3.799 28.88 11.397 7.53 7.49 11.4 17.693 11.62 30.609 0 2.605-.05 4.667-.16 6.187h-63.58c.97 6.404 3.6 11.397 7.9 14.978 4.31 3.474 9.42 5.21 15.34 5.21 9.46 0 16.72-3.31 21.78-9.931l12.43 10.42c-3.77 5.101-8.72 9.117-14.85 12.048-6.13 2.822-12.53 4.233-19.2 4.233-11.94 0-21.95-4.07-30.02-12.211-8.07-8.249-12.1-18.289-12.1-30.12 0-12.157 3.98-22.305 11.94-30.446 8.07-8.249 18.07-12.374 30.02-12.374Zm.16 15.793c-5.81 0-10.76 1.737-14.85 5.21-4.09 3.365-6.83 8.032-8.23 14.002h45.35c-1.51-6.187-4.2-10.908-8.07-14.165-3.77-3.364-8.5-5.047-14.2-5.047Z" fill="#004737"/><path d="M260.444 76.899c19.318 31.571 21.759 60.294 6.713 89.169-15.269 29.308-40.768 45.148-74.434 46.934-19.019 1.007-38.137.184-58.998.184V252h-32.313v-38.5H61v-32.123h40.113c0-18.005-.089-34.949.011-51.903.333-55.27 45.694-94.345 101.408-86.463 11.862 1.678 23.169 7.103 37.406 11.65-9.01 8.954-15.568 15.98-22.803 22.26-1.609 1.396-5.848.812-8.533.01-40.168-11.909-74.445 12.278-75.088 53.29-.255 16.608-.045 33.216-.045 50.182 22.792 0 44.408 1.84 65.546-.433 31.103-3.346 52.008-35.934 42.82-66.054-3.24-10.611-.666-16.262 6.835-22.607 4.117-3.464 6.936-8.358 11.774-14.41Z" fill="#FFB014"/></svg>