<svg width="73" height="71" viewBox="0 0 73 71" fill="none" xmlns="http://www.w3.org/2000/svg">
<path d="M67.4309 11.7992C73.9624 22.4731 74.7878 32.1843 69.7006 41.9468C64.5384 51.8557 55.9173 57.211 44.535 57.815C38.1048 58.1554 31.6408 57.8772 24.5879 57.8772C24.5879 62.3503 24.5879 66.5855 24.5879 71C20.6862 71 17.3886 71 13.6633 71C13.6633 66.7465 13.6633 62.6102 13.6633 57.9834C8.90625 57.9834 4.55067 57.9834 0 57.9834C0 54.1508 0 50.8235 0 47.1227C4.49064 47.1227 8.74869 47.1227 13.562 47.1227C13.562 41.0354 13.532 35.3067 13.5657 29.5744C13.6783 10.8877 29.0147 -2.32292 47.8514 0.3419C51.8619 0.909274 55.6847 2.74317 60.498 4.28057C57.4517 7.30778 55.2345 9.68342 52.7885 11.8065C52.2445 12.2787 50.8114 12.081 49.9035 11.8102C36.3228 7.78364 24.7342 15.9611 24.5166 29.827C24.4303 35.4422 24.5016 41.0573 24.5016 46.7933C32.2073 46.7933 39.5154 47.4156 46.6622 46.6469C57.1778 45.5158 64.2458 34.4978 61.1395 24.3143C60.0441 20.7271 60.9144 18.8163 63.4505 16.6713C64.8423 15.4999 65.7952 13.8454 67.4309 11.7992Z" fill="#FFB014"/>
</svg>
